# xmcd
#
# Track frame offsets:
#	150
#	23860
#	47628
#	67299
#	92928
#	114894
#	136248
#	155174
#	179476
#
# Disc length: 2622 seconds
# Revision: 0
# Processed by: cddbd v1.5.2PL0 Copyright (c) Steve Scherf et al.
# Submitted via: dBpowerAMP V12.0
#
DISCID=7e0a3c09
DTITLE=REV FERRIDAY and THE LONG DOGS - Nine Beats
DYEAR=2013
DGENRE=Blues
TTITLE0=MOONSHINE
TTITLE1=SYD'S SONG
TTITLE2=NINE BEATS
TTITLE3=HALLELUJIA
TTITLE4=TAIL LIGHTS
TTITLE5=C INSIDE
TTITLE6=EYES
TTITLE7=TEN AND SIX
TTITLE8=I'M COMING IN
EXTD=
EXTT0=
EXTT1=
EXTT2=
EXTT3=
EXTT4=
EXTT5=
EXTT6=
EXTT7=
EXTT8=
PLAYORDER=
